HIERARCHY
ROOT Hips
{
  OFFSET -383.564 90.0711 1452.72
  CHANNELS 6 Xposition Yposition Zposition Zrotation Xrotation Yrotation
  JOINT Spine
  {
    OFFSET 0 8 0
    CHANNELS 6 Xposition Yposition Zposition Zrotation Xrotation Yrotation
    JOINT Spine1
    {
      OFFSET 0 8 0
      CHANNELS 6 Xposition Yposition Zposition Zrotation Xrotation Yrotation
      JOINT Spine2
      {
        OFFSET 0 8 0
        CHANNELS 6 Xposition Yposition Zposition Zrotation Xrotation Yrotation
        JOINT Spine3
        {
          OFFSET 0 8 0
          CHANNELS 6 Xposition Yposition Zposition Zrotation Xrotation Yrotation
          JOINT Neck
          {
            OFFSET 0 17 0
            CHANNELS 6 Xposition Yposition Zposition Zrotation Xrotation Yrotation
            JOINT Head
            {
              OFFSET 0 10.8 0
              CHANNELS 6 Xposition Yposition Zposition Zrotation Xrotation Yrotation
              End Site
              {
                OFFSET 0 20.25 0
              }
            }
          }
          JOINT LeftShoulder
          {
            OFFSET 5 17 0
            CHANNELS 6 Xposition Yposition Zposition Zrotation Xrotation Yrotation
            JOINT LeftShoulder2
            {
              OFFSET 6.45 0 0
              CHANNELS 6 Xposition Yposition Zposition Zrotation Xrotation Yrotation
              JOINT LeftArm
              {
                OFFSET 6.45 0 0
                CHANNELS 6 Xposition Yposition Zposition Zrotation Xrotation Yrotation
                JOINT LeftForeArm
                {
                  OFFSET 0 -32.4 -2
                  CHANNELS 6 Xposition Yposition Zposition Zrotation Xrotation Yrotation
                  JOINT LeftHand
                  {
                    OFFSET 0 -25.65 2
                    CHANNELS 6 Xposition Yposition Zposition Zrotation Xrotation Yrotation
                    JOINT LeftHandThumb1
                    {
                      OFFSET -0.5 -1.5 2.65
                      CHANNELS 6 Xposition Yposition Zposition Zrotation Xrotation Yrotation
                      JOINT LeftHandThumb2
                      {
                        OFFSET 0 -3.8 3.7
                        CHANNELS 6 Xposition Yposition Zposition Zrotation Xrotation Yrotation
                        JOINT LeftHandThumb3
                        {
                          OFFSET 0 -3 2.7
                          CHANNELS 6 Xposition Yposition Zposition Zrotation Xrotation Yrotation
                          End Site
                          {
                            OFFSET 0 -2.3 1.8
                          }
                        }
                      }
                    }
                    JOINT LeftHandIndex
                    {
                      OFFSET 0 -1.9 1.6
                      CHANNELS 6 Xposition Yposition Zposition Zrotation Xrotation Yrotation
                      JOINT LeftHandIndex1
                      {
                        OFFSET 0 -8.3 1.9
                        CHANNELS 6 Xposition Yposition Zposition Zrotation Xrotation Yrotation
                        JOINT LeftHandIndex2
                        {
                          OFFSET 0 -4.5 0
                          CHANNELS 6 Xposition Yposition Zposition Zrotation Xrotation Yrotation
                          JOINT LeftHandIndex3
                          {
                            OFFSET 0 -3.4 0
                            CHANNELS 6 Xposition Yposition Zposition Zrotation Xrotation Yrotation
                            End Site
                            {
                              OFFSET 0 -2.6 0
                            }
                          }
                        }
                      }
                    }
                    JOINT LeftHandMiddle
                    {
                      OFFSET -0.25 -2.2 0.4
                      CHANNELS 6 Xposition Yposition Zposition Zrotation Xrotation Yrotation
                      JOINT LeftHandMiddle1
                      {
                        OFFSET 0 -8.3 1
                        CHANNELS 6 Xposition Yposition Zposition Zrotation Xrotation Yrotation
                        JOINT LeftHandMiddle2
                        {
                          OFFSET 0 -4.65 0
                          CHANNELS 6 Xposition Yposition Zposition Zrotation Xrotation Yrotation
                          JOINT LeftHandMiddle3
                          {
                            OFFSET 0 -3.3 0
                            CHANNELS 6 Xposition Yposition Zposition Zrotation Xrotation Yrotation
                            End Site
                            {
                              OFFSET 0 -2.7 0
                            }
                          }
                        }
                      }
                    }
                    JOINT LeftHandRing
                    {
                      OFFSET -0.5 -2.15 -0.8
                      CHANNELS 6 Xposition Yposition Zposition Zrotation Xrotation Yrotation
                      JOINT LeftHandRing1
                      {
                        OFFSET 0 -7.75 -0.2
                        CHANNELS 6 Xposition Yposition Zposition Zrotation Xrotation Yrotation
                        JOINT LeftHandRing2
                        {
                          OFFSET 0 -3.8 0
                          CHANNELS 6 Xposition Yposition Zposition Zrotation Xrotation Yrotation
                          JOINT LeftHandRing3
                          {
                            OFFSET 0 -3.4 0
                            CHANNELS 6 Xposition Yposition Zposition Zrotation Xrotation Yrotation
                            End Site
                            {
                              OFFSET 0 -2.6 0
                            }
                          }
                        }
                      }
                    }
                    JOINT LeftHandPinky
                    {
                      OFFSET -0.75 -1.75 -1.85
                      CHANNELS 6 Xposition Yposition Zposition Zrotation Xrotation Yrotation
                      JOINT LeftHandPinky1
                      {
                        OFFSET 0 -7.15 -1
                        CHANNELS 6 Xposition Yposition Zposition Zrotation Xrotation Yrotation
                        JOINT LeftHandPinky2
                        {
                          OFFSET 0 -3 0
                          CHANNELS 6 Xposition Yposition Zposition Zrotation Xrotation Yrotation
                          JOINT LeftHandPinky3
                          {
                            OFFSET 0 -2.35 0
                            CHANNELS 6 Xposition Yposition Zposition Zrotation Xrotation Yrotation
                            End Site
                            {
                              OFFSET 0 -2.1 0
                            }
                          }
                        }
                      }
                    }
                  }
                }
              }
            }
          }
          JOINT RightShoulder
          {
            OFFSET -5 17 0
            CHANNELS 6 Xposition Yposition Zposition Zrotation Xrotation Yrotation
            JOINT RightShoulder2
            {
              OFFSET -6.45 0 0
              CHANNELS 6 Xposition Yposition Zposition Zrotation Xrotation Yrotation
              JOINT RightArm
              {
                OFFSET -6.45 0 0
                CHANNELS 6 Xposition Yposition Zposition Zrotation Xrotation Yrotation
                JOINT RightForeArm
                {
                  OFFSET 0 -32.4 -2
                  CHANNELS 6 Xposition Yposition Zposition Zrotation Xrotation Yrotation
                  JOINT RightHand
                  {
                    OFFSET 0 -25.65 2
                    CHANNELS 6 Xposition Yposition Zposition Zrotation Xrotation Yrotation
                    JOINT RightHandThumb1
                    {
                      OFFSET 0.5 -1.5 2.65
                      CHANNELS 6 Xposition Yposition Zposition Zrotation Xrotation Yrotation
                      JOINT RightHandThumb2
                      {
                        OFFSET 0 -3.8 3.7
                        CHANNELS 6 Xposition Yposition Zposition Zrotation Xrotation Yrotation
                        JOINT RightHandThumb3
                        {
                          OFFSET 0 -3 2.7
                          CHANNELS 6 Xposition Yposition Zposition Zrotation Xrotation Yrotation
                          End Site
                          {
                            OFFSET 0 -2.3 1.8
                          }
                        }
                      }
                    }
                    JOINT RightHandIndex
                    {
                      OFFSET 0 -1.9 1.6
                      CHANNELS 6 Xposition Yposition Zposition Zrotation Xrotation Yrotation
                      JOINT RightHandIndex1
                      {
                        OFFSET 0 -8.3 1.9
                        CHANNELS 6 Xposition Yposition Zposition Zrotation Xrotation Yrotation
                        JOINT RightHandIndex2
                        {
                          OFFSET 0 -4.5 0
                          CHANNELS 6 Xposition Yposition Zposition Zrotation Xrotation Yrotation
                          JOINT RightHandIndex3
                          {
                            OFFSET 0 -3.4 0
                            CHANNELS 6 Xposition Yposition Zposition Zrotation Xrotation Yrotation
                            End Site
                            {
                              OFFSET 0 -2.6 0
                            }
                          }
                        }
                      }
                    }
                    JOINT RightHandMiddle
                    {
                      OFFSET 0.25 -2.2 0.4
                      CHANNELS 6 Xposition Yposition Zposition Zrotation Xrotation Yrotation
                      JOINT RightHandMiddle1
                      {
                        OFFSET 0 -8.3 1
                        CHANNELS 6 Xposition Yposition Zposition Zrotation Xrotation Yrotation
                        JOINT RightHandMiddle2
                        {
                          OFFSET 0 -4.65 0
                          CHANNELS 6 Xposition Yposition Zposition Zrotation Xrotation Yrotation
                          JOINT RightHandMiddle3
                          {
                            OFFSET 0 -3.3 0
                            CHANNELS 6 Xposition Yposition Zposition Zrotation Xrotation Yrotation
                            End Site
                            {
                              OFFSET 0 -2.7 0
                            }
                          }
                        }
                      }
                    }
                    JOINT RightHandRing
                    {
                      OFFSET 0.5 -2.15 -0.8
                      CHANNELS 6 Xposition Yposition Zposition Zrotation Xrotation Yrotation
                      JOINT RightHandRing1
                      {
                        OFFSET 0 -7.75 -0.2
                        CHANNELS 6 Xposition Yposition Zposition Zrotation Xrotation Yrotation
                        JOINT RightHandRing2
                        {
                          OFFSET 0 -3.8 0
                          CHANNELS 6 Xposition Yposition Zposition Zrotation Xrotation Yrotation
                          JOINT RightHandRing3
                          {
                            OFFSET 0 -3.4 0
                            CHANNELS 6 Xposition Yposition Zposition Zrotation Xrotation Yrotation
                            End Site
                            {
                              OFFSET 0 -2.6 0
                            }
                          }
                        }
                      }
                    }
                    JOINT RightHandPinky
                    {
                      OFFSET 0.75 -1.75 -1.85
                      CHANNELS 6 Xposition Yposition Zposition Zrotation Xrotation Yrotation
                      JOINT RightHandPinky1
                      {
                        OFFSET 0 -7.15 -1
                        CHANNELS 6 Xposition Yposition Zposition Zrotation Xrotation Yrotation
                        JOINT RightHandPinky2
                        {
                          OFFSET 0 -3 0
                          CHANNELS 6 Xposition Yposition Zposition Zrotation Xrotation Yrotation
                          JOINT RightHandPinky3
                          {
                            OFFSET 0 -2.35 0
                            CHANNELS 6 Xposition Yposition Zposition Zrotation Xrotation Yrotation
                            End Site
                            {
                              OFFSET 0 -2.1 0
                            }
                          }
                        }
                      }
                    }
                  }
                }
              }
            }
          }
        }
      }
    }
  }
  JOINT LeftUpLeg
  {
    OFFSET 8 0 0
    CHANNELS 6 Xposition Yposition Zposition Zrotation Xrotation Yrotation
    JOINT LeftLeg
    {
      OFFSET 0 -45 -1
      CHANNELS 6 Xposition Yposition Zposition Zrotation Xrotation Yrotation
      JOINT LeftFoot
      {
        OFFSET 0 -41 -2
        CHANNELS 6 Xposition Yposition Zposition Zrotation Xrotation Yrotation
        JOINT LeftToeBase
        {
          OFFSET 0 -7.5 12.5
          CHANNELS 6 Xposition Yposition Zposition Zrotation Xrotation Yrotation
          JOINT LeftFootToe
          {
            OFFSET 0 0 4
            CHANNELS 6 Xposition Yposition Zposition Zrotation Xrotation Yrotation
            End Site
            {
              OFFSET 0 0 0
            }
          }
        }
      }
    }
  }
  JOINT RightUpLeg
  {
    OFFSET -8 0 0
    CHANNELS 6 Xposition Yposition Zposition Zrotation Xrotation Yrotation
    JOINT RightLeg
    {
      OFFSET 0 -45 -1
      CHANNELS 6 Xposition Yposition Zposition Zrotation Xrotation Yrotation
      JOINT RightFoot
      {
        OFFSET 0 -41 -2
        CHANNELS 6 Xposition Yposition Zposition Zrotation Xrotation Yrotation
        JOINT RightToeBase
        {
          OFFSET 0 -7.5 12.5
          CHANNELS 6 Xposition Yposition Zposition Zrotation Xrotation Yrotation
          JOINT RightFootToe
          {
            OFFSET 0 0 4
            CHANNELS 6 Xposition Yposition Zposition Zrotation Xrotation Yrotation
            End Site
            {
              OFFSET 0 0 0
            }
          }
        }
      }
    }
  }
}
MOTION
Frames:	3
Frame Time:	0.0111111
-293.656 93.3856 870.743 -0.433784 0.242556 164.302 5.68434e-14 8 1.13687e-13 -0.610606 -2.57422 -5.74492 -5.68434e-14 8 1.13687e-13 -0.0656481 1.3406 0.240808 0 8 0 -0.0321198 0.670364 0.120203 0 8 1.13687e-13 -0.0321176 0.670323 0.120188 0 17 0 1.14474 -5.68767 -0.851936 5.68434e-14 10.8 0 1.28238 -10.6689 -1.97144 5 17 1.13687e-13 -0.489184 -4.82107 -2.01478 6.45 0 0 0.627376 -0.964326 2.4209 6.45 0 0 48.9416 -1.32255 3.20185 -5.68434e-14 -32.4 -2 -90.7813 -40.5418 -89.1332 0 -25.65 2 -28.0588 -34.2618 -36.2737 -0.5 -1.5 2.65 -2.69328 22.1436 -19.4955 -2.84217e-14 -3.8 3.7 -0.839943 14.488 -0.015145 -2.84217e-14 -3 2.7 -0.0795004 -4.11833 0.1792 0 -1.9 1.6 7.95139e-16 0 -3.18055e-15 -5.68434e-14 -8.3 1.9 -3.459 -12.5043 -0.320161 0 -4.5 0 -3.37897 0.00873326 -0.00774831 0 -3.4 1.13687e-13 -3.21877 0.00835515 -0.00669635 -0.25 -2.2 0.4 7.95139e-16 0 -3.18055e-15 5.68434e-14 -8.3 1 -6.00203 -9.58246 -0.384777 0 -4.65 0 -9.99405e-12 2.42665e-05 2.35932e-05 -5.68434e-14 -3.3 1.13687e-13 -9.90906e-12 2.43456e-05 2.33091e-05 -0.5 -2.15 -0.8 7.95139e-16 0 -3.18055e-15 0 -7.75 -0.2 -11.5585 -3.61804 -0.117158 -5.68434e-14 -3.8 0 -1.13586e-09 6.31187e-05 0.00103108 0 -3.4 1.13687e-13 -5.4234e-10 5.9195e-05 0.000524944 -0.75 -1.75 -1.85 7.95139e-16 0 -3.18055e-15 5.68434e-14 -7.15 -1 -14.8256 -1.88272 0.0822121 -5.68434e-14 -3 -1.13687e-13 1.07887e-08 0.000788369 -0.000784081 -5.68434e-14 -2.35 -1.13687e-13 1.0893e-08 0.000791636 -0.000788399 -5 17 0 1.47684 -2.80372 3.52803 -6.45 -2.84217e-14 0 -2.72872 0.591759 -3.75973 -6.45 2.84217e-14 1.13687e-13 -28.8191 -22.2256 10.5091 0 -32.4 -2 85.7785 -77.1127 87.5004 2.84217e-14 -25.65 2 4.88239 1.54588 4.10069 0.5 -1.5 2.65 2.5485 1.44003 2.32764 2.84217e-14 -3.8 3.7 0.371392 43.9456 -0.15834 0 -3 2.7 0.0772911 54.2613 -0.0649703 0 -1.9 1.6 -7.95139e-16 0 -7.95139e-15 -5.68434e-14 -8.3 1.9 5.62435 -5.77569 0.257171 5.68434e-14 -4.5 0 4.48728e-09 -0.00068977 0.000372736 5.68434e-14 -3.4 0 6.41574e-09 -0.00102626 0.000358189 0.25 -2.2 0.4 -7.95139e-16 0 -7.95139e-15 2.84217e-14 -8.3 1 3.08289 -3.15286 0.0546046 0 -4.65 0 68.3277 -0.00946938 -0.00441703 0 -3.3 5.68434e-14 50.0316 -0.00092761 0.0132116 0.5 -2.15 -0.8 -7.95139e-16 0 -7.95139e-15 2.84217e-14 -7.75 -0.2 1.52128 3.32247 -0.0933784 0 -3.8 0 37.3785 -0.00952363 0.00136114 -1.13687e-13 -3.4 0 26.5024 -0.00707707 0.000580369 0.75 -1.75 -1.85 -7.95139e-16 0 -7.95139e-15 0 -7.15 -1 0.494681 4.40698 -0.0617751 -2.84217e-14 -3 0 35.7058 -0.0397342 0.00205485 0 -2.35 0 25.5025 -0.0184638 0.00299067 8 0 0 -1.12758 -2.95118 -8.28183 5.68434e-14 -45 -1 0.00214059 3.87233 -0.630968 -5.68434e-14 -41 -2 0.208344 -0.743507 3.70736 5.68434e-14 -7.5 12.5 1.94126e-19 0 -3.18055e-15 -5.68434e-14 6.93889e-18 4 -0.946599 -1.67922 42.3955 -8 -1.42109e-14 1.13687e-13 -3.03005 -5.12459 2.02717 -8.52651e-14 -45 -1 -0.00101591 4.8006 -0.426553 0 -41 -2 2.73987 0.238886 15.2418 0 -7.5 12.5 -3.88251e-18 -2.48481e-17 -0 0 0 4 1.02796 -3.65638 34.6054 
-293.669 93.3857 870.707 -0.432536 0.242888 164.584 -8.52651e-14 8 -1.13687e-13 -0.558654 -2.64076 -5.63404 -1.13687e-13 8 -1.13687e-13 -0.0895792 1.37119 0.285019 5.68434e-14 8 0 -0.0439364 0.685683 0.142228 5.68434e-14 8 1.13687e-13 -0.043933 0.685636 0.142214 -5.68434e-14 17 0 1.25614 -5.96866 -0.678475 -5.68434e-14 10.8 0 1.25055 -10.8346 -1.57504 5 17 1.13687e-13 -0.424835 -5.05036 -1.86896 6.45 -2.84217e-14 0 0.59814 -0.981279 2.39034 6.45 -2.84217e-14 -1.13687e-13 48.6807 -1.75746 3.66363 0 -32.4 -2 -89.6992 -40.1649 -87.4651 0 -25.65 2 -27.2782 -34.5185 -35.3214 -0.5 -1.5 2.65 -2.67314 22.3017 -20.6742 0 -3.8 3.7 -0.872869 14.223 -0.023845 2.84217e-14 -3 2.7 -0.0762495 -4.75364 0.178761 0 -1.9 1.6 1.59028e-15 1.59028e-15 6.36111e-15 0 -8.3 1.9 -3.48821 -12.5698 -0.317155 0 -4.5 0 -3.25753 0.00904815 -0.0140553 0 -3.4 -1.13687e-13 -3.10504 0.00867432 -0.0121846 -0.25 -2.2 0.4 1.59028e-15 1.59028e-15 6.36111e-15 0 -8.3 1 -6.09944 -9.75232 -0.392967 0 -4.65 1.13687e-13 -1.07996e-11 2.52294e-05 2.45294e-05 5.68434e-14 -3.3 0 -1.07011e-11 2.53117e-05 2.4234e-05 -0.5 -2.15 -0.8 1.59028e-15 1.59028e-15 6.36111e-15 0 -7.75 -0.2 -11.7746 -3.87578 -0.142305 0 -3.8 0 -1.21885e-09 6.70509e-05 0.00104153 0 -3.4 0 -5.89355e-10 6.28851e-05 0.000536976 -0.75 -1.75 -1.85 1.59028e-15 1.59028e-15 6.36111e-15 0 -7.15 -1 -15.1381 -2.23656 0.0417992 5.68434e-14 -3 -1.13687e-13 1.05153e-08 0.000777665 -0.000774734 0 -2.35 -1.13687e-13 1.06232e-08 0.00078104 -0.000779301 -5 17 0 1.40325 -2.99031 3.62595 -6.45 0 0 -2.72911 0.59854 -3.74985 -6.45 0 0 -28.7795 -22.732 10.8628 -2.84217e-14 -32.4 -2 83.9448 -77.2222 85.6318 -2.84217e-14 -25.65 2 4.80451 1.42039 4.49517 0.5 -1.5 2.65 2.59788 1.4453 2.16855 -2.84217e-14 -3.8 3.7 0.371561 44.0105 -0.158354 0 -3 2.7 0.0769207 54.1401 -0.0648019 2.84217e-14 -1.9 1.6 -2.38542e-15 -1.59028e-15 -8.15017e-15 -5.68434e-14 -8.3 1.9 5.56743 -5.59836 0.246347 -5.68434e-14 -4.5 0 4.65069e-09 -0.000706421 0.000377204 0 -3.4 0 6.58889e-09 -0.00104159 0.00036244 0.25 -2.2 0.4 -2.38542e-15 -1.59028e-15 -8.15017e-15 0 -8.3 1 2.91392 -3.00067 0.047722 -2.84217e-14 -4.65 0 67.994 -0.00950336 -0.00440152 -1.13687e-13 -3.3 5.68434e-14 49.669 -0.00101352 0.0130302 0.5 -2.15 -0.8 -2.38542e-15 -1.59028e-15 -8.15017e-15 2.84217e-14 -7.75 -0.2 1.43024 3.54612 -0.0958772 0 -3.8 0 37.0601 -0.00803221 0.00133477 1.13687e-13 -3.4 5.68434e-14 26.3108 -0.00702797 0.000492995 0.75 -1.75 -1.85 -2.38542e-15 -1.59028e-15 -8.15017e-15 2.84217e-14 -7.15 -1 0.39635 4.47585 -0.0611731 0 -3 0 34.7898 -0.0396057 0.00197216 1.13687e-13 -2.35 0 24.9543 -0.0182162 0.00355311 8 1.42109e-14 -1.13687e-13 -1.13593 -2.95124 -8.26829 0 -45 -1 0.00230709 3.86984 -0.635449 0 -41 -2 0.218717 -0.734952 3.39985 1.13687e-13 -7.5 12.5 -1.74713e-18 -7.76503e-19 -6.36111e-15 -5.68434e-14 -6.93889e-18 4 -0.956542 -1.6881 42.3943 -8 -1.42109e-14 0 -3.04999 -5.05292 1.9993 2.84217e-14 -45 -1 -0.0014214 4.7851 -0.421463 2.84217e-14 -41 -2 2.7563 0.189035 15.0178 0 -7.5 12.5 -3.10601e-18 2.48481e-17 3.97569e-16 0 0 4 1.00003 -3.62309 34.6028 
-293.682 93.3858 870.674 -0.431287 0.24334 164.873 2.84217e-14 8 -1.13687e-13 -0.511059 -2.70328 -5.52735 0 8 0 -0.111202 1.39955 0.311473 0 8 0 -0.0546489 0.699881 0.155384 -5.68434e-14 8 0 -0.0546444 0.699828 0.155371 0 17 0 1.35313 -6.22021 -0.516412 0 10.8 0 1.22673 -10.9785 -1.20466 5 17 -1.13687e-13 -0.35725 -5.26142 -1.7145 6.45 0 -1.13687e-13 0.570469 -1.00337 2.36817 6.45 0 0 48.3886 -2.20156 4.14649 -2.84217e-14 -32.4 -2 -88.5479 -39.7719 -85.7355 0 -25.65 2 -26.5421 -34.7672 -34.3828 -0.5 -1.5 2.65 -2.58179 22.418 -21.8594 0 -3.8 3.7 -0.907804 13.8592 -0.0364429 0 -3 2.7 -0.0735186 -5.41106 0.177711 5.68434e-14 -1.9 1.6 -4.41391e-32 3.97569e-16 6.36111e-15 -5.68434e-14 -8.3 1.9 -3.47798 -12.5343 -0.31022 -5.68434e-14 -4.5 0 -3.05046 0.00923123 -0.0185154 0 -3.4 0 -2.91169 0.0088765 -0.0160939 -0.25 -2.2 0.4 -4.41391e-32 3.97569e-16 6.36111e-15 5.68434e-14 -8.3 1 -6.12036 -9.82175 -0.393071 0 -4.65 0 -1.16316e-11 2.61848e-05 2.54583e-05 0 -3.3 -1.13687e-13 -1.15321e-11 2.62702e-05 2.51517e-05 -0.5 -2.15 -0.8 -4.41391e-32 3.97569e-16 6.36111e-15 5.68434e-14 -7.75 -0.2 -11.8285 -4.02763 -0.155906 -5.68434e-14 -3.8 0 -1.30261e-09 7.0953e-05 0.00105188 0 -3.4 0 -6.37539e-10 6.65468e-05 0.00054891 -0.75 -1.75 -1.85 -4.41391e-32 3.97569e-16 6.36111e-15 -5.68434e-14 -7.15 -1 -15.2329 -2.46481 0.0152724 0 -3 0 1.02473e-08 0.000767035 -0.000765451 0 -2.35 -1.13687e-13 1.03586e-08 0.000770517 -0.000770265 -5 17 -1.13687e-13 1.34038 -3.15865 3.736 -6.45 0 0 -2.72996 0.600213 -3.72679 -6.45 0 0 -28.7305 -23.2537 11.2323 -2.84217e-14 -32.4 -2 81.9681 -77.3297 83.6059 0 -25.65 2 4.68985 1.26269 4.9369 0.5 -1.5 2.65 2.65206 1.49637 2.02873 0 -3.8 3.7 0.371977 44.0982 -0.15843 0 -3 2.7 0.0765474 54.0176 -0.0646234 0 -1.9 1.6 0 0 -4.77083e-15 2.84217e-14 -8.3 1.9 5.52586 -5.43256 0.23666 0 -4.5 0 4.81631e-09 -0.000723075 0.00038164 5.68434e-14 -3.4 0 6.76364e-09 -0.00105692 0.000366659 0.25 -2.2 0.4 0 0 -4.77083e-15 -5.68434e-14 -8.3 1 2.78252 -2.84694 0.0417569 0 -4.65 1.13687e-13 67.706 -0.00945184 -0.00438513 0 -3.3 -5.68434e-14 49.361 -0.00110434 0.012258 0.5 -2.15 -0.8 0 0 -4.77083e-15 -2.84217e-14 -7.75 -0.2 1.36873 3.75535 -0.0981026 -2.84217e-14 -3.8 -5.68434e-14 36.815 -0.0069451 0.00130933 0 -3.4 5.68434e-14 26.1637 -0.00697711 0.000405929 0.75 -1.75 -1.85 0 0 -4.77083e-15 -2.84217e-14 -7.15 -1 0.327159 4.56064 -0.060783 0 -3 0 33.9194 -0.0393728 0.00189147 0 -2.35 0 24.4344 -0.0179405 0.00405504 8 -1.42109e-14 -1.13687e-13 -1.14259 -2.95154 -8.25119 0 -45 -1 0.00253787 3.86643 -0.640983 0 -41 -2 0.227298 -0.724329 3.06985 -5.68434e-14 -7.5 12.5 7.03705e-19 1.06769e-18 -0 0 0 4 -0.965694 -1.69769 42.3947 -8 0 -1.13687e-13 -3.07056 -4.9829 1.9484 2.84217e-14 -45 -1 -0.00173279 4.76955 -0.41772 -1.13687e-13 -41 -2 2.77066 0.142463 14.8188 0 -7.5 12.5 0 0 -3.97569e-16 -5.68434e-14 0 4 0.971074 -3.58608 34.6004 
